<mxfile host="app.diagrams.net" modified="2024-01-19T12:48:55.529Z" agent="Mozilla/5.0 (Windows NT 10.0; Win64; x64) AppleWebKit/537.36 (KHTML, like Gecko) Chrome/120.0.0.0 Safari/537.36" etag="B5its_B1Stx1pUT4HVCz" version="22.1.18" type="device">
  <diagram name="Page-1" id="I4r-sgHH2PV-89nzbA14">
    <mxGraphModel dx="1434" dy="738" grid="1" gridSize="10" guides="1" tooltips="1" connect="1" arrows="1" fold="1" page="1" pageScale="1" pageWidth="850" pageHeight="1100" math="0" shadow="0">
      <root>
        <mxCell id="0" />
        <mxCell id="1" parent="0" />
        <mxCell id="lVaYGZIUKaE6MIih4N8y-1" value="Board" style="swimlane;fontStyle=0;align=center;verticalAlign=top;childLayout=stackLayout;horizontal=1;startSize=55;horizontalStack=0;resizeParent=1;resizeParentMax=0;resizeLast=0;collapsible=0;marginBottom=0;html=1;whiteSpace=wrap;" vertex="1" parent="1">
          <mxGeometry x="40" y="320" width="140" height="183" as="geometry" />
        </mxCell>
        <mxCell id="lVaYGZIUKaE6MIih4N8y-2" value="&amp;nbsp;" style="text;html=1;strokeColor=none;fillColor=none;align=center;verticalAlign=middle;spacingLeft=4;spacingRight=4;overflow=hidden;rotatable=0;points=[[0,0.5],[1,0.5]];portConstraint=eastwest;whiteSpace=wrap;" vertex="1" parent="lVaYGZIUKaE6MIih4N8y-1">
          <mxGeometry y="55" width="140" height="20" as="geometry" />
        </mxCell>
        <mxCell id="lVaYGZIUKaE6MIih4N8y-3" value="&amp;nbsp;" style="text;html=1;strokeColor=none;fillColor=none;align=left;verticalAlign=middle;spacingLeft=4;spacingRight=4;overflow=hidden;rotatable=0;points=[[0,0.5],[1,0.5]];portConstraint=eastwest;whiteSpace=wrap;" vertex="1" parent="lVaYGZIUKaE6MIih4N8y-1">
          <mxGeometry y="75" width="140" height="20" as="geometry" />
        </mxCell>
        <mxCell id="lVaYGZIUKaE6MIih4N8y-4" value="&amp;nbsp;" style="text;html=1;strokeColor=none;fillColor=none;align=left;verticalAlign=middle;spacingLeft=4;spacingRight=4;overflow=hidden;rotatable=0;points=[[0,0.5],[1,0.5]];portConstraint=eastwest;fontColor=#808080;whiteSpace=wrap;" vertex="1" parent="lVaYGZIUKaE6MIih4N8y-1">
          <mxGeometry y="95" width="140" height="20" as="geometry" />
        </mxCell>
        <mxCell id="lVaYGZIUKaE6MIih4N8y-5" value="&amp;nbsp;" style="text;html=1;strokeColor=none;fillColor=none;align=left;verticalAlign=middle;spacingLeft=4;spacingRight=4;overflow=hidden;rotatable=0;points=[[0,0.5],[1,0.5]];portConstraint=eastwest;whiteSpace=wrap;" vertex="1" parent="lVaYGZIUKaE6MIih4N8y-1">
          <mxGeometry y="115" width="140" height="20" as="geometry" />
        </mxCell>
        <mxCell id="lVaYGZIUKaE6MIih4N8y-6" value="" style="line;strokeWidth=1;fillColor=none;align=left;verticalAlign=middle;spacingTop=-1;spacingLeft=3;spacingRight=3;rotatable=0;labelPosition=right;points=[];portConstraint=eastwest;" vertex="1" parent="lVaYGZIUKaE6MIih4N8y-1">
          <mxGeometry y="135" width="140" height="8" as="geometry" />
        </mxCell>
        <mxCell id="lVaYGZIUKaE6MIih4N8y-7" value="initialize" style="text;html=1;strokeColor=none;fillColor=none;align=center;verticalAlign=middle;spacingLeft=4;spacingRight=4;overflow=hidden;rotatable=0;points=[[0,0.5],[1,0.5]];portConstraint=eastwest;whiteSpace=wrap;" vertex="1" parent="lVaYGZIUKaE6MIih4N8y-1">
          <mxGeometry y="143" width="140" height="20" as="geometry" />
        </mxCell>
        <mxCell id="lVaYGZIUKaE6MIih4N8y-8" value="solve&amp;nbsp;" style="text;html=1;strokeColor=none;fillColor=none;align=center;verticalAlign=middle;spacingLeft=4;spacingRight=4;overflow=hidden;rotatable=0;points=[[0,0.5],[1,0.5]];portConstraint=eastwest;whiteSpace=wrap;" vertex="1" parent="lVaYGZIUKaE6MIih4N8y-1">
          <mxGeometry y="163" width="140" height="20" as="geometry" />
        </mxCell>
        <mxCell id="lVaYGZIUKaE6MIih4N8y-9" value="BoardRookKnight" style="swimlane;fontStyle=1;align=center;verticalAlign=top;childLayout=stackLayout;horizontal=1;startSize=26;horizontalStack=0;resizeParent=1;resizeParentMax=0;resizeLast=0;collapsible=1;marginBottom=0;whiteSpace=wrap;html=1;" vertex="1" parent="1">
          <mxGeometry x="320" y="160" width="160" height="130" as="geometry" />
        </mxCell>
        <mxCell id="lVaYGZIUKaE6MIih4N8y-10" value="field: lastRookKnight" style="text;strokeColor=none;fillColor=none;align=left;verticalAlign=top;spacingLeft=4;spacingRight=4;overflow=hidden;rotatable=0;points=[[0,0.5],[1,0.5]];portConstraint=eastwest;whiteSpace=wrap;html=1;" vertex="1" parent="lVaYGZIUKaE6MIih4N8y-9">
          <mxGeometry y="26" width="160" height="26" as="geometry" />
        </mxCell>
        <mxCell id="lVaYGZIUKaE6MIih4N8y-11" value="" style="line;strokeWidth=1;fillColor=none;align=left;verticalAlign=middle;spacingTop=-1;spacingLeft=3;spacingRight=3;rotatable=0;labelPosition=right;points=[];portConstraint=eastwest;strokeColor=inherit;" vertex="1" parent="lVaYGZIUKaE6MIih4N8y-9">
          <mxGeometry y="52" width="160" height="8" as="geometry" />
        </mxCell>
        <mxCell id="lVaYGZIUKaE6MIih4N8y-12" value="initialize&amp;nbsp;" style="text;strokeColor=none;fillColor=none;align=left;verticalAlign=top;spacingLeft=4;spacingRight=4;overflow=hidden;rotatable=0;points=[[0,0.5],[1,0.5]];portConstraint=eastwest;whiteSpace=wrap;html=1;" vertex="1" parent="lVaYGZIUKaE6MIih4N8y-9">
          <mxGeometry y="60" width="160" height="40" as="geometry" />
        </mxCell>
        <mxCell id="lVaYGZIUKaE6MIih4N8y-65" value="solve" style="text;strokeColor=none;fillColor=none;align=left;verticalAlign=top;spacingLeft=4;spacingRight=4;overflow=hidden;rotatable=0;points=[[0,0.5],[1,0.5]];portConstraint=eastwest;whiteSpace=wrap;html=1;" vertex="1" parent="lVaYGZIUKaE6MIih4N8y-9">
          <mxGeometry y="100" width="160" height="30" as="geometry" />
        </mxCell>
        <mxCell id="lVaYGZIUKaE6MIih4N8y-13" value="BoardQueen" style="swimlane;fontStyle=1;align=center;verticalAlign=top;childLayout=stackLayout;horizontal=1;startSize=26;horizontalStack=0;resizeParent=1;resizeParentMax=0;resizeLast=0;collapsible=1;marginBottom=0;whiteSpace=wrap;html=1;" vertex="1" parent="1">
          <mxGeometry x="320" y="701" width="160" height="116" as="geometry" />
        </mxCell>
        <mxCell id="lVaYGZIUKaE6MIih4N8y-14" value="field:&amp;nbsp;lastQueen (Queen)" style="text;strokeColor=none;fillColor=none;align=left;verticalAlign=top;spacingLeft=4;spacingRight=4;overflow=hidden;rotatable=0;points=[[0,0.5],[1,0.5]];portConstraint=eastwest;whiteSpace=wrap;html=1;" vertex="1" parent="lVaYGZIUKaE6MIih4N8y-13">
          <mxGeometry y="26" width="160" height="26" as="geometry" />
        </mxCell>
        <mxCell id="lVaYGZIUKaE6MIih4N8y-15" value="" style="line;strokeWidth=1;fillColor=none;align=left;verticalAlign=middle;spacingTop=-1;spacingLeft=3;spacingRight=3;rotatable=0;labelPosition=right;points=[];portConstraint=eastwest;strokeColor=inherit;" vertex="1" parent="lVaYGZIUKaE6MIih4N8y-13">
          <mxGeometry y="52" width="160" height="8" as="geometry" />
        </mxCell>
        <mxCell id="lVaYGZIUKaE6MIih4N8y-16" value="initialize&amp;nbsp;" style="text;strokeColor=none;fillColor=none;align=left;verticalAlign=top;spacingLeft=4;spacingRight=4;overflow=hidden;rotatable=0;points=[[0,0.5],[1,0.5]];portConstraint=eastwest;whiteSpace=wrap;html=1;" vertex="1" parent="lVaYGZIUKaE6MIih4N8y-13">
          <mxGeometry y="60" width="160" height="30" as="geometry" />
        </mxCell>
        <mxCell id="lVaYGZIUKaE6MIih4N8y-64" value="solve" style="text;strokeColor=none;fillColor=none;align=left;verticalAlign=top;spacingLeft=4;spacingRight=4;overflow=hidden;rotatable=0;points=[[0,0.5],[1,0.5]];portConstraint=eastwest;whiteSpace=wrap;html=1;" vertex="1" parent="lVaYGZIUKaE6MIih4N8y-13">
          <mxGeometry y="90" width="160" height="26" as="geometry" />
        </mxCell>
        <mxCell id="lVaYGZIUKaE6MIih4N8y-17" style="edgeStyle=orthogonalEdgeStyle;rounded=0;orthogonalLoop=1;jettySize=auto;html=1;exitX=1;exitY=0.5;exitDx=0;exitDy=0;entryX=-0.006;entryY=0.923;entryDx=0;entryDy=0;entryPerimeter=0;" edge="1" parent="1" source="lVaYGZIUKaE6MIih4N8y-4" target="lVaYGZIUKaE6MIih4N8y-14">
          <mxGeometry relative="1" as="geometry" />
        </mxCell>
        <mxCell id="lVaYGZIUKaE6MIih4N8y-20" value="implements" style="edgeLabel;html=1;align=center;verticalAlign=middle;resizable=0;points=[];" vertex="1" connectable="0" parent="lVaYGZIUKaE6MIih4N8y-17">
          <mxGeometry x="-0.0283" relative="1" as="geometry">
            <mxPoint as="offset" />
          </mxGeometry>
        </mxCell>
        <mxCell id="lVaYGZIUKaE6MIih4N8y-18" style="edgeStyle=orthogonalEdgeStyle;rounded=0;orthogonalLoop=1;jettySize=auto;html=1;entryX=-0.012;entryY=0.769;entryDx=0;entryDy=0;entryPerimeter=0;" edge="1" parent="1" source="lVaYGZIUKaE6MIih4N8y-4" target="lVaYGZIUKaE6MIih4N8y-10">
          <mxGeometry relative="1" as="geometry" />
        </mxCell>
        <mxCell id="lVaYGZIUKaE6MIih4N8y-19" value="implements" style="edgeLabel;html=1;align=center;verticalAlign=middle;resizable=0;points=[];" vertex="1" connectable="0" parent="lVaYGZIUKaE6MIih4N8y-18">
          <mxGeometry x="0.2546" y="-2" relative="1" as="geometry">
            <mxPoint as="offset" />
          </mxGeometry>
        </mxCell>
        <mxCell id="lVaYGZIUKaE6MIih4N8y-21" value="Queen" style="swimlane;fontStyle=1;align=center;verticalAlign=top;childLayout=stackLayout;horizontal=1;startSize=26;horizontalStack=0;resizeParent=1;resizeParentMax=0;resizeLast=0;collapsible=1;marginBottom=0;whiteSpace=wrap;html=1;" vertex="1" parent="1">
          <mxGeometry x="790" y="50" width="160" height="86" as="geometry" />
        </mxCell>
        <mxCell id="lVaYGZIUKaE6MIih4N8y-22" value="&amp;nbsp;" style="text;strokeColor=none;fillColor=none;align=left;verticalAlign=top;spacingLeft=4;spacingRight=4;overflow=hidden;rotatable=0;points=[[0,0.5],[1,0.5]];portConstraint=eastwest;whiteSpace=wrap;html=1;" vertex="1" parent="lVaYGZIUKaE6MIih4N8y-21">
          <mxGeometry y="26" width="160" height="26" as="geometry" />
        </mxCell>
        <mxCell id="lVaYGZIUKaE6MIih4N8y-23" value="" style="line;strokeWidth=1;fillColor=none;align=left;verticalAlign=middle;spacingTop=-1;spacingLeft=3;spacingRight=3;rotatable=0;labelPosition=right;points=[];portConstraint=eastwest;strokeColor=inherit;" vertex="1" parent="lVaYGZIUKaE6MIih4N8y-21">
          <mxGeometry y="52" width="160" height="8" as="geometry" />
        </mxCell>
        <mxCell id="lVaYGZIUKaE6MIih4N8y-24" value="canAttack -&amp;gt; bool" style="text;strokeColor=none;fillColor=none;align=left;verticalAlign=top;spacingLeft=4;spacingRight=4;overflow=hidden;rotatable=0;points=[[0,0.5],[1,0.5]];portConstraint=eastwest;whiteSpace=wrap;html=1;" vertex="1" parent="lVaYGZIUKaE6MIih4N8y-21">
          <mxGeometry y="60" width="160" height="26" as="geometry" />
        </mxCell>
        <mxCell id="lVaYGZIUKaE6MIih4N8y-25" value="QueenTerminator" style="swimlane;fontStyle=1;align=center;verticalAlign=top;childLayout=stackLayout;horizontal=1;startSize=26;horizontalStack=0;resizeParent=1;resizeParentMax=0;resizeLast=0;collapsible=1;marginBottom=0;whiteSpace=wrap;html=1;" vertex="1" parent="1">
          <mxGeometry x="790" y="200" width="160" height="86" as="geometry" />
        </mxCell>
        <mxCell id="lVaYGZIUKaE6MIih4N8y-26" value="&amp;nbsp;" style="text;strokeColor=none;fillColor=none;align=left;verticalAlign=top;spacingLeft=4;spacingRight=4;overflow=hidden;rotatable=0;points=[[0,0.5],[1,0.5]];portConstraint=eastwest;whiteSpace=wrap;html=1;" vertex="1" parent="lVaYGZIUKaE6MIih4N8y-25">
          <mxGeometry y="26" width="160" height="26" as="geometry" />
        </mxCell>
        <mxCell id="lVaYGZIUKaE6MIih4N8y-27" value="" style="line;strokeWidth=1;fillColor=none;align=left;verticalAlign=middle;spacingTop=-1;spacingLeft=3;spacingRight=3;rotatable=0;labelPosition=right;points=[];portConstraint=eastwest;strokeColor=inherit;" vertex="1" parent="lVaYGZIUKaE6MIih4N8y-25">
          <mxGeometry y="52" width="160" height="8" as="geometry" />
        </mxCell>
        <mxCell id="lVaYGZIUKaE6MIih4N8y-28" value="&amp;nbsp;" style="text;strokeColor=none;fillColor=none;align=left;verticalAlign=top;spacingLeft=4;spacingRight=4;overflow=hidden;rotatable=0;points=[[0,0.5],[1,0.5]];portConstraint=eastwest;whiteSpace=wrap;html=1;" vertex="1" parent="lVaYGZIUKaE6MIih4N8y-25">
          <mxGeometry y="60" width="160" height="26" as="geometry" />
        </mxCell>
        <mxCell id="lVaYGZIUKaE6MIih4N8y-29" value="RookKnightTerminator" style="swimlane;fontStyle=1;align=center;verticalAlign=top;childLayout=stackLayout;horizontal=1;startSize=26;horizontalStack=0;resizeParent=1;resizeParentMax=0;resizeLast=0;collapsible=1;marginBottom=0;whiteSpace=wrap;html=1;" vertex="1" parent="1">
          <mxGeometry x="790" y="615" width="160" height="86" as="geometry" />
        </mxCell>
        <mxCell id="lVaYGZIUKaE6MIih4N8y-30" value="&amp;nbsp;" style="text;strokeColor=none;fillColor=none;align=left;verticalAlign=top;spacingLeft=4;spacingRight=4;overflow=hidden;rotatable=0;points=[[0,0.5],[1,0.5]];portConstraint=eastwest;whiteSpace=wrap;html=1;" vertex="1" parent="lVaYGZIUKaE6MIih4N8y-29">
          <mxGeometry y="26" width="160" height="26" as="geometry" />
        </mxCell>
        <mxCell id="lVaYGZIUKaE6MIih4N8y-31" value="" style="line;strokeWidth=1;fillColor=none;align=left;verticalAlign=middle;spacingTop=-1;spacingLeft=3;spacingRight=3;rotatable=0;labelPosition=right;points=[];portConstraint=eastwest;strokeColor=inherit;" vertex="1" parent="lVaYGZIUKaE6MIih4N8y-29">
          <mxGeometry y="52" width="160" height="8" as="geometry" />
        </mxCell>
        <mxCell id="lVaYGZIUKaE6MIih4N8y-32" value="&amp;nbsp;" style="text;strokeColor=none;fillColor=none;align=left;verticalAlign=top;spacingLeft=4;spacingRight=4;overflow=hidden;rotatable=0;points=[[0,0.5],[1,0.5]];portConstraint=eastwest;whiteSpace=wrap;html=1;" vertex="1" parent="lVaYGZIUKaE6MIih4N8y-29">
          <mxGeometry y="60" width="160" height="26" as="geometry" />
        </mxCell>
        <mxCell id="lVaYGZIUKaE6MIih4N8y-33" value="RookKnight" style="swimlane;fontStyle=1;align=center;verticalAlign=top;childLayout=stackLayout;horizontal=1;startSize=26;horizontalStack=0;resizeParent=1;resizeParentMax=0;resizeLast=0;collapsible=1;marginBottom=0;whiteSpace=wrap;html=1;" vertex="1" parent="1">
          <mxGeometry x="800" y="811" width="160" height="86" as="geometry" />
        </mxCell>
        <mxCell id="lVaYGZIUKaE6MIih4N8y-34" value="&amp;nbsp;" style="text;strokeColor=none;fillColor=none;align=left;verticalAlign=top;spacingLeft=4;spacingRight=4;overflow=hidden;rotatable=0;points=[[0,0.5],[1,0.5]];portConstraint=eastwest;whiteSpace=wrap;html=1;" vertex="1" parent="lVaYGZIUKaE6MIih4N8y-33">
          <mxGeometry y="26" width="160" height="26" as="geometry" />
        </mxCell>
        <mxCell id="lVaYGZIUKaE6MIih4N8y-35" value="" style="line;strokeWidth=1;fillColor=none;align=left;verticalAlign=middle;spacingTop=-1;spacingLeft=3;spacingRight=3;rotatable=0;labelPosition=right;points=[];portConstraint=eastwest;strokeColor=inherit;" vertex="1" parent="lVaYGZIUKaE6MIih4N8y-33">
          <mxGeometry y="52" width="160" height="8" as="geometry" />
        </mxCell>
        <mxCell id="lVaYGZIUKaE6MIih4N8y-36" value="canAttack -&amp;gt; bool" style="text;strokeColor=none;fillColor=none;align=left;verticalAlign=top;spacingLeft=4;spacingRight=4;overflow=hidden;rotatable=0;points=[[0,0.5],[1,0.5]];portConstraint=eastwest;whiteSpace=wrap;html=1;" vertex="1" parent="lVaYGZIUKaE6MIih4N8y-33">
          <mxGeometry y="60" width="160" height="26" as="geometry" />
        </mxCell>
        <mxCell id="lVaYGZIUKaE6MIih4N8y-37" value="ChessPiece" style="swimlane;fontStyle=0;align=center;verticalAlign=top;childLayout=stackLayout;horizontal=1;startSize=55;horizontalStack=0;resizeParent=1;resizeParentMax=0;resizeLast=0;collapsible=0;marginBottom=0;html=1;whiteSpace=wrap;" vertex="1" parent="1">
          <mxGeometry x="320" y="345" width="260" height="270" as="geometry" />
        </mxCell>
        <mxCell id="lVaYGZIUKaE6MIih4N8y-38" value="attributes" style="text;html=1;strokeColor=none;fillColor=none;align=center;verticalAlign=middle;spacingLeft=4;spacingRight=4;overflow=hidden;rotatable=0;points=[[0,0.5],[1,0.5]];portConstraint=eastwest;whiteSpace=wrap;" vertex="1" parent="lVaYGZIUKaE6MIih4N8y-37">
          <mxGeometry y="55" width="260" height="20" as="geometry" />
        </mxCell>
        <mxCell id="lVaYGZIUKaE6MIih4N8y-39" value="field:&amp;nbsp;row" style="text;html=1;strokeColor=none;fillColor=none;align=left;verticalAlign=middle;spacingLeft=4;spacingRight=4;overflow=hidden;rotatable=0;points=[[0,0.5],[1,0.5]];portConstraint=eastwest;whiteSpace=wrap;" vertex="1" parent="lVaYGZIUKaE6MIih4N8y-37">
          <mxGeometry y="75" width="260" height="20" as="geometry" />
        </mxCell>
        <mxCell id="lVaYGZIUKaE6MIih4N8y-40" value="field: column" style="text;html=1;strokeColor=none;fillColor=none;align=left;verticalAlign=middle;spacingLeft=4;spacingRight=4;overflow=hidden;rotatable=0;points=[[0,0.5],[1,0.5]];portConstraint=eastwest;fontColor=#808080;whiteSpace=wrap;" vertex="1" parent="lVaYGZIUKaE6MIih4N8y-37">
          <mxGeometry y="95" width="260" height="20" as="geometry" />
        </mxCell>
        <mxCell id="lVaYGZIUKaE6MIih4N8y-41" value="field: neighbor" style="text;html=1;strokeColor=none;fillColor=none;align=left;verticalAlign=middle;spacingLeft=4;spacingRight=4;overflow=hidden;rotatable=0;points=[[0,0.5],[1,0.5]];portConstraint=eastwest;whiteSpace=wrap;" vertex="1" parent="lVaYGZIUKaE6MIih4N8y-37">
          <mxGeometry y="115" width="260" height="20" as="geometry" />
        </mxCell>
        <mxCell id="lVaYGZIUKaE6MIih4N8y-42" value="" style="line;strokeWidth=1;fillColor=none;align=left;verticalAlign=middle;spacingTop=-1;spacingLeft=3;spacingRight=3;rotatable=0;labelPosition=right;points=[];portConstraint=eastwest;" vertex="1" parent="lVaYGZIUKaE6MIih4N8y-37">
          <mxGeometry y="135" width="260" height="8" as="geometry" />
        </mxCell>
        <mxCell id="lVaYGZIUKaE6MIih4N8y-43" value="operations" style="text;html=1;strokeColor=none;fillColor=none;align=center;verticalAlign=middle;spacingLeft=4;spacingRight=4;overflow=hidden;rotatable=0;points=[[0,0.5],[1,0.5]];portConstraint=eastwest;whiteSpace=wrap;" vertex="1" parent="lVaYGZIUKaE6MIih4N8y-37">
          <mxGeometry y="143" width="260" height="20" as="geometry" />
        </mxCell>
        <mxCell id="lVaYGZIUKaE6MIih4N8y-44" value="&lt;div&gt;advance -&amp;gt; bool&lt;/div&gt;&lt;div&gt;moveToNextNonAttackedRow -&amp;gt; bool&lt;/div&gt;&lt;div&gt;setColumn -&amp;gt; void&lt;/div&gt;&lt;div&gt;canAttack -&amp;gt; bool&lt;/div&gt;&lt;div&gt;firstSolution -&amp;gt; bool&lt;/div&gt;&lt;div&gt;nextSolution -&amp;gt; bool&lt;/div&gt;&lt;div&gt;result -&amp;gt; collection&lt;/div&gt;" style="text;html=1;strokeColor=none;fillColor=none;align=left;verticalAlign=middle;spacingLeft=4;spacingRight=4;overflow=hidden;rotatable=0;points=[[0,0.5],[1,0.5]];portConstraint=eastwest;whiteSpace=wrap;" vertex="1" parent="lVaYGZIUKaE6MIih4N8y-37">
          <mxGeometry y="163" width="260" height="107" as="geometry" />
        </mxCell>
        <mxCell id="lVaYGZIUKaE6MIih4N8y-45" value="Terminator" style="swimlane;fontStyle=0;align=center;verticalAlign=top;childLayout=stackLayout;horizontal=1;startSize=55;horizontalStack=0;resizeParent=1;resizeParentMax=0;resizeLast=0;collapsible=0;marginBottom=0;html=1;whiteSpace=wrap;" vertex="1" parent="1">
          <mxGeometry x="1230" y="286" width="200" height="240" as="geometry" />
        </mxCell>
        <mxCell id="lVaYGZIUKaE6MIih4N8y-46" value="&amp;nbsp;" style="text;html=1;strokeColor=none;fillColor=none;align=center;verticalAlign=middle;spacingLeft=4;spacingRight=4;overflow=hidden;rotatable=0;points=[[0,0.5],[1,0.5]];portConstraint=eastwest;whiteSpace=wrap;" vertex="1" parent="lVaYGZIUKaE6MIih4N8y-45">
          <mxGeometry y="55" width="200" height="20" as="geometry" />
        </mxCell>
        <mxCell id="lVaYGZIUKaE6MIih4N8y-51" value="operations" style="text;html=1;strokeColor=none;fillColor=none;align=center;verticalAlign=middle;spacingLeft=4;spacingRight=4;overflow=hidden;rotatable=0;points=[[0,0.5],[1,0.5]];portConstraint=eastwest;whiteSpace=wrap;" vertex="1" parent="lVaYGZIUKaE6MIih4N8y-45">
          <mxGeometry y="75" width="200" height="20" as="geometry" />
        </mxCell>
        <mxCell id="lVaYGZIUKaE6MIih4N8y-47" value="&amp;nbsp;" style="text;html=1;strokeColor=none;fillColor=none;align=left;verticalAlign=middle;spacingLeft=4;spacingRight=4;overflow=hidden;rotatable=0;points=[[0,0.5],[1,0.5]];portConstraint=eastwest;whiteSpace=wrap;" vertex="1" parent="lVaYGZIUKaE6MIih4N8y-45">
          <mxGeometry y="95" width="200" height="20" as="geometry" />
        </mxCell>
        <mxCell id="lVaYGZIUKaE6MIih4N8y-48" value="&amp;nbsp;" style="text;html=1;strokeColor=none;fillColor=none;align=left;verticalAlign=middle;spacingLeft=4;spacingRight=4;overflow=hidden;rotatable=0;points=[[0,0.5],[1,0.5]];portConstraint=eastwest;fontColor=#808080;whiteSpace=wrap;" vertex="1" parent="lVaYGZIUKaE6MIih4N8y-45">
          <mxGeometry y="115" width="200" height="20" as="geometry" />
        </mxCell>
        <mxCell id="lVaYGZIUKaE6MIih4N8y-52" value="&lt;div&gt;canAttack(int,int) -&amp;gt; bool&lt;/div&gt;&lt;div&gt;firstSolution -&amp;lt; bool&lt;/div&gt;&lt;div&gt;&lt;span style=&quot;background-color: initial;&quot;&gt;nextSolution -&amp;gt; bool&lt;/span&gt;&lt;/div&gt;&lt;div&gt;result -&amp;gt; collection&lt;/div&gt;" style="text;html=1;strokeColor=none;fillColor=none;align=left;verticalAlign=middle;spacingLeft=4;spacingRight=4;overflow=hidden;rotatable=0;points=[[0,0.5],[1,0.5]];portConstraint=eastwest;whiteSpace=wrap;" vertex="1" parent="lVaYGZIUKaE6MIih4N8y-45">
          <mxGeometry y="135" width="200" height="77" as="geometry" />
        </mxCell>
        <mxCell id="lVaYGZIUKaE6MIih4N8y-49" value="&amp;nbsp;" style="text;html=1;strokeColor=none;fillColor=none;align=left;verticalAlign=middle;spacingLeft=4;spacingRight=4;overflow=hidden;rotatable=0;points=[[0,0.5],[1,0.5]];portConstraint=eastwest;whiteSpace=wrap;" vertex="1" parent="lVaYGZIUKaE6MIih4N8y-45">
          <mxGeometry y="212" width="200" height="20" as="geometry" />
        </mxCell>
        <mxCell id="lVaYGZIUKaE6MIih4N8y-50" value="" style="line;strokeWidth=1;fillColor=none;align=left;verticalAlign=middle;spacingTop=-1;spacingLeft=3;spacingRight=3;rotatable=0;labelPosition=right;points=[];portConstraint=eastwest;" vertex="1" parent="lVaYGZIUKaE6MIih4N8y-45">
          <mxGeometry y="232" width="200" height="8" as="geometry" />
        </mxCell>
        <mxCell id="lVaYGZIUKaE6MIih4N8y-53" style="edgeStyle=orthogonalEdgeStyle;rounded=0;orthogonalLoop=1;jettySize=auto;html=1;exitX=0;exitY=0.5;exitDx=0;exitDy=0;entryX=1;entryY=0.5;entryDx=0;entryDy=0;" edge="1" parent="1" target="lVaYGZIUKaE6MIih4N8y-26">
          <mxGeometry relative="1" as="geometry">
            <mxPoint x="1159.04" y="391" as="sourcePoint" />
            <mxPoint x="960" y="170.00800000000004" as="targetPoint" />
            <Array as="points">
              <mxPoint x="1050" y="391" />
              <mxPoint x="1050" y="239" />
            </Array>
          </mxGeometry>
        </mxCell>
        <mxCell id="lVaYGZIUKaE6MIih4N8y-54" style="edgeStyle=orthogonalEdgeStyle;rounded=0;orthogonalLoop=1;jettySize=auto;html=1;exitX=0;exitY=0.5;exitDx=0;exitDy=0;entryX=1;entryY=0.5;entryDx=0;entryDy=0;" edge="1" parent="1" source="lVaYGZIUKaE6MIih4N8y-48" target="lVaYGZIUKaE6MIih4N8y-30">
          <mxGeometry relative="1" as="geometry">
            <Array as="points">
              <mxPoint x="1230" y="391" />
              <mxPoint x="1050" y="391" />
              <mxPoint x="1050" y="654" />
            </Array>
          </mxGeometry>
        </mxCell>
        <mxCell id="lVaYGZIUKaE6MIih4N8y-55" value="Implements" style="edgeLabel;html=1;align=center;verticalAlign=middle;resizable=0;points=[];" vertex="1" connectable="0" parent="lVaYGZIUKaE6MIih4N8y-54">
          <mxGeometry x="-0.6667" y="-1" relative="1" as="geometry">
            <mxPoint x="-41" y="-12" as="offset" />
          </mxGeometry>
        </mxCell>
        <mxCell id="lVaYGZIUKaE6MIih4N8y-56" style="edgeStyle=orthogonalEdgeStyle;rounded=0;orthogonalLoop=1;jettySize=auto;html=1;exitX=1;exitY=0.5;exitDx=0;exitDy=0;entryX=-0.019;entryY=0.846;entryDx=0;entryDy=0;entryPerimeter=0;fillColor=#dae8fc;strokeColor=#6c8ebf;" edge="1" parent="1" source="lVaYGZIUKaE6MIih4N8y-10" target="lVaYGZIUKaE6MIih4N8y-26">
          <mxGeometry relative="1" as="geometry" />
        </mxCell>
        <mxCell id="lVaYGZIUKaE6MIih4N8y-57" style="edgeStyle=orthogonalEdgeStyle;rounded=0;orthogonalLoop=1;jettySize=auto;html=1;exitX=1;exitY=0.5;exitDx=0;exitDy=0;entryX=0;entryY=0.5;entryDx=0;entryDy=0;" edge="1" parent="1" source="lVaYGZIUKaE6MIih4N8y-39" target="lVaYGZIUKaE6MIih4N8y-22">
          <mxGeometry relative="1" as="geometry">
            <Array as="points">
              <mxPoint x="580" y="450" />
              <mxPoint x="700" y="450" />
              <mxPoint x="700" y="89" />
            </Array>
          </mxGeometry>
        </mxCell>
        <mxCell id="lVaYGZIUKaE6MIih4N8y-58" style="edgeStyle=orthogonalEdgeStyle;rounded=0;orthogonalLoop=1;jettySize=auto;html=1;exitX=1;exitY=0.5;exitDx=0;exitDy=0;entryX=0.006;entryY=-0.231;entryDx=0;entryDy=0;entryPerimeter=0;" edge="1" parent="1" source="lVaYGZIUKaE6MIih4N8y-40" target="lVaYGZIUKaE6MIih4N8y-36">
          <mxGeometry relative="1" as="geometry">
            <Array as="points">
              <mxPoint x="700" y="450" />
              <mxPoint x="700" y="865" />
            </Array>
          </mxGeometry>
        </mxCell>
        <mxCell id="lVaYGZIUKaE6MIih4N8y-67" value="implements" style="edgeLabel;html=1;align=center;verticalAlign=middle;resizable=0;points=[];" vertex="1" connectable="0" parent="lVaYGZIUKaE6MIih4N8y-58">
          <mxGeometry x="-0.8145" y="1" relative="1" as="geometry">
            <mxPoint as="offset" />
          </mxGeometry>
        </mxCell>
        <mxCell id="lVaYGZIUKaE6MIih4N8y-59" style="edgeStyle=orthogonalEdgeStyle;rounded=0;orthogonalLoop=1;jettySize=auto;html=1;exitX=1;exitY=0.5;exitDx=0;exitDy=0;entryX=-0.012;entryY=0.115;entryDx=0;entryDy=0;entryPerimeter=0;fillColor=#dae8fc;strokeColor=#6c8ebf;" edge="1" parent="1" source="lVaYGZIUKaE6MIih4N8y-10" target="lVaYGZIUKaE6MIih4N8y-22">
          <mxGeometry relative="1" as="geometry" />
        </mxCell>
        <mxCell id="lVaYGZIUKaE6MIih4N8y-62" value="uses" style="edgeLabel;html=1;align=center;verticalAlign=middle;resizable=0;points=[];" vertex="1" connectable="0" parent="lVaYGZIUKaE6MIih4N8y-59">
          <mxGeometry x="-0.6496" relative="1" as="geometry">
            <mxPoint as="offset" />
          </mxGeometry>
        </mxCell>
        <mxCell id="lVaYGZIUKaE6MIih4N8y-60" style="edgeStyle=orthogonalEdgeStyle;rounded=0;orthogonalLoop=1;jettySize=auto;html=1;exitX=1;exitY=0.5;exitDx=0;exitDy=0;entryX=0;entryY=0.5;entryDx=0;entryDy=0;fillColor=#dae8fc;strokeColor=#6c8ebf;" edge="1" parent="1" source="lVaYGZIUKaE6MIih4N8y-14">
          <mxGeometry relative="1" as="geometry">
            <mxPoint x="800" y="699.9999999999998" as="targetPoint" />
          </mxGeometry>
        </mxCell>
        <mxCell id="lVaYGZIUKaE6MIih4N8y-61" style="edgeStyle=orthogonalEdgeStyle;rounded=0;orthogonalLoop=1;jettySize=auto;html=1;exitX=1;exitY=0.5;exitDx=0;exitDy=0;fillColor=#dae8fc;strokeColor=#6c8ebf;" edge="1" parent="1" source="lVaYGZIUKaE6MIih4N8y-14" target="lVaYGZIUKaE6MIih4N8y-34">
          <mxGeometry relative="1" as="geometry" />
        </mxCell>
        <mxCell id="lVaYGZIUKaE6MIih4N8y-63" value="uses" style="edgeLabel;html=1;align=center;verticalAlign=middle;resizable=0;points=[];" vertex="1" connectable="0" parent="lVaYGZIUKaE6MIih4N8y-61">
          <mxGeometry x="-0.6372" y="2" relative="1" as="geometry">
            <mxPoint as="offset" />
          </mxGeometry>
        </mxCell>
      </root>
    </mxGraphModel>
  </diagram>
</mxfile>
